<?xml version="1.0" encoding="UTF-8"?>
<svg id="Capa_2" data-name="Capa 2" xmlns="http://www.w3.org/2000/svg" viewBox="0 0 675.47 148.68">
  <defs>
    <style>
      .cls-1 {
        fill: #000;
        stroke-width: 0px;
      }
    </style>
  </defs>
  <g id="Capa_1-2" data-name="Capa 1">
    <g>
      <g>
        <g>
          <path class="cls-1" d="m293.05,28.24v17.45c0,3.54,1.77,8.12,7.16,8.12s7.16-4.58,7.16-8.12v-16.01c0-.79.64-1.43,1.43-1.43h2.43v18.05c0,6.59-4.78,11.14-11.01,11.14s-11.01-4.54-11.01-11.14v-18.05h3.86Z"/>
          <path class="cls-1" d="m318.01,28.24h5.07l15.68,23.4h.08v-22.64c0-.42.34-.76.76-.76h3.1v28.46h-4.9l-15.84-23.4h-.08v23.4h-3.86v-28.46Z"/>
          <path class="cls-1" d="m352.57,28.24h2.53v28.46h-3.86v-27.13c0-.74.6-1.33,1.33-1.33Z"/>
          <path class="cls-1" d="m360.97,28.24h4.46l8.36,23.16h.08l8.68-23.16h4.22l-11.22,28.46h-3.62l-10.97-28.46Z"/>
          <path class="cls-1" d="m393.42,28.24h18.37v3.62h-14.51v8.48h13.51v3.62h-13.51v9.12h15.24v3.62h-19.1v-28.46Z"/>
          <path class="cls-1" d="m609.63,28.24h18.37v3.62h-14.51v8.48h13.51v3.62h-13.51v9.12h15.24v3.62h-19.1v-28.46Z"/>
          <path class="cls-1" d="m419.27,28.24h10.01c7.28,0,9.13,4.38,9.13,7.96s-2.69,7.04-6.99,7.52l8.08,12.98h-4.82l-7.24-12.54h-4.3v12.54h-3.86v-28.46Zm3.86,12.54h5.07c3.06,0,6.11-.72,6.11-4.58s-3.05-4.58-6.11-4.58h-5.07v9.17Z"/>
          <path class="cls-1" d="m447.89,50.75c1.37,2.09,3.74,3.06,6.03,3.06,2.53,0,5.67-1.61,5.67-4.74,0-6.55-14.03-2.49-14.03-13.59,0-3.34,2.81-7.96,9.65-7.96,3.1,0,6.07.64,8.2,3.26l-3.14,2.85c-.97-1.49-2.85-2.49-5.07-2.49-4.26,0-5.55,2.57-5.55,4.34,0,7.2,14.03,2.89,14.03,13.15,0,5.51-4.42,8.8-9.89,8.8-3.66,0-7.16-1.25-9.09-3.94l3.18-2.73Z"/>
          <path class="cls-1" d="m471.06,28.24h2.84v28.46h-3.86v-27.44c0-.56.46-1.02,1.02-1.02Z"/>
          <path class="cls-1" d="m481.21,28.24h9.93c12.02,0,14.95,8.96,14.95,14.23,0,7.28-5.43,14.23-15.6,14.23h-9.29v-28.46Zm3.86,24.84h4.86c6.51,0,12.06-3.58,12.06-10.61,0-3.62-1.89-10.61-11.14-10.61h-5.79v21.23Z"/>
          <path class="cls-1" d="m520.58,28.24h2.72l12.18,28.46h-4.5l-2.85-7.03h-13.55l-2.81,7.03h-4.5l12.23-27.75c.19-.43.62-.71,1.09-.71Zm6.14,18.05l-5.31-13.06h-.08l-5.39,13.06h10.77Z"/>
          <path class="cls-1" d="m540.29,28.24h9.93c12.02,0,14.95,8.96,14.95,14.23,0,7.28-5.43,14.23-15.6,14.23h-9.29v-28.46Zm3.86,24.84h4.86c6.51,0,12.06-3.58,12.06-10.61,0-3.62-1.89-10.61-11.14-10.61h-5.79v21.23Z"/>
          <path class="cls-1" d="m580.19,28.24h9.93c12.02,0,14.95,8.96,14.95,14.23,0,7.28-5.43,14.23-15.6,14.23h-9.29v-28.46Zm3.86,24.84h4.86c6.51,0,12.06-3.58,12.06-10.61,0-3.62-1.89-10.61-11.14-10.61h-5.79v21.23Z"/>
        </g>
        <g>
          <path class="cls-1" d="m329.03,116.59c-6.19,3.23-13,4.58-20,4.58-14.88,0-25.72-9.76-25.72-25.05s10.84-25.05,25.72-25.05c7.54,0,14.21,1.68,18.99,6.13l-7.41,8.08c-2.83-2.96-6.26-4.51-11.58-4.51-8.96,0-14.81,6.46-14.81,15.35s5.86,15.35,14.81,15.35c4.58,0,7.95-1.28,9.9-2.36v-7.74h-8.55v-6.95c0-1.52,1.23-2.75,2.75-2.75h15.9v24.91Z"/>
          <path class="cls-1" d="m378.46,101.57c0,11.24-6.87,19.59-20.06,19.59s-20.13-8.35-20.13-19.59v-29.29h10.5v28.89c0,5.86,4.04,10.3,9.63,10.3s9.56-4.44,9.56-10.3v-26.83c0-1.14.92-2.06,2.06-2.06h8.45v29.29Z"/>
          <path class="cls-1" d="m404.34,72.28h6.91l20.74,47.67h-11.85l-4.11-10.1h-18.52l-3.97,10.1h-11.58l19.9-46.04c.43-.99,1.4-1.63,2.48-1.63Zm2.26,13.87l-5.79,14.81h11.65l-5.86-14.81Z"/>
          <path class="cls-1" d="m442.29,99.62l-17.91-27.34h13.06l10.1,17.84,10.24-17.06c.29-.49.82-.79,1.39-.79h11.54l-17.91,27.34v20.33h-10.5v-20.33Z"/>
          <path class="cls-1" d="m485.45,72.28h6.93l20.74,47.67h-11.85l-4.11-10.1h-18.52l-3.97,10.1h-11.58l19.91-46.06c.42-.98,1.38-1.61,2.45-1.61Zm2.29,13.87l-5.79,14.81h11.65l-5.86-14.81Z"/>
          <path class="cls-1" d="m570.09,119.95h-28.89c-14.88,0-25.86-9.09-25.86-24.44,0-14.41,11.31-24.44,25.45-24.44s25.45,10.1,25.45,24.44c0,6.73-2.96,13.33-9.49,16.23v.13h13.33v8.08Zm-29.29-9.7c8.01,0,14.54-6.53,14.54-14.75s-6.53-14.75-14.54-14.75-14.54,6.53-14.54,14.75,6.53,14.75,14.54,14.75Z"/>
          <path class="cls-1" d="m615.48,101.57c0,11.24-6.87,19.59-20.07,19.59s-20.13-8.35-20.13-19.59v-29.29h10.5v28.89c0,5.86,4.04,10.3,9.63,10.3s9.56-4.44,9.56-10.3v-26.92c0-1.09.88-1.97,1.97-1.97h8.54v29.29Z"/>
          <path class="cls-1" d="m627.1,72.28h8.45v47.67h-10.5v-45.61c0-1.14.92-2.06,2.06-2.06Z"/>
          <path class="cls-1" d="m645.51,72.28h10.5v37.98h19.46v9.7h-29.96v-47.67Z"/>
        </g>
      </g>
      <g>
        <path class="cls-1" d="m90.54,103.18c-.35,2.55-.93,5.49-1.91,8.6-3.84,12.24-11.67,21.52-23.28,27.61-10.1-5.22-17.27-13.04-21.38-23.36-1.73-4.36-2.66-8.57-3.14-12.11,2.14,3.63,5.21,6.55,9.17,9.07,4.42,2.8,9.65,4.26,15.25,4.26s10.83-1.45,15.26-4.26c4.2-2.67,7.67-5.85,10.04-9.82Z"/>
        <path class="cls-1" d="m72.73,148.38c-2.45.2-4.95.3-7.48.3-5.3,0-10.44-.41-15.34-1.29h0c-4.59-.81-8.98-2.05-13.09-3.74-9.19-3.79-17.01-9.89-22.7-18.92-5.21-8.25-7.81-17.91-7.81-27.7v-32.21c.33,1.03.7,2.07,1.11,3.13,3.61,9.3,11.26,21.36,27.42,28.16-.08,4.05.28,12.51,3.91,21.74,4.14,10.52,13.38,23.84,33.98,30.52Z"/>
        <path class="cls-1" d="m120.19,118.93c-.7,1.51-1.48,2.99-2.34,4.43-5.75,9.65-13.81,16.17-23.37,20.18-2.65,1.12-5.73,2.03-8.82,2.77-4.61-1.21-11.72-3.27-14.04-4.14,13.56-8.45,19.63-20.16,22.35-28.95,2.37-7.66,2.62-14.27,2.56-17.48h0c5.42-2.36,9.86-5.3,13.51-8.51,2.43,14.95,7.23,25.61,7.44,26.07.08.18,1.22,2.67,2.7,5.63Z"/>
        <path class="cls-1" d="m37.56,0v91.27c-11.89-4.81-19.57-13.55-24.93-25.13-4.44-9.61-5.66-13.83-6.33-18.72,0,0,0-16.12,0-16.12h-3.17c-1.73,0-3.13-1.42-3.13-3.16V0h37.56Z"/>
        <path class="cls-1" d="m124.98,0v24.38l-5,6.95-.04.07c-8.96,13.22-12.64,30.11-10.77,49.09-4.2,4.42-9.36,7.91-15.48,10.46V3.14c0-.38.3-3.14,3.31-3.14h27.98Z"/>
        <path class="cls-1" d="m244.3,18.22l-10.74,11.84-1.87,2.06-6.44,7.05-.93,1.03-1.07,1.18c-.09-.07-.19-.13-.28-.18-9.47-6.26-20.83-9.89-33.02-9.89-8.17,0-12.82,1.23-16.27,2.25-6.34,1.88-10.72,3.82-14.66,7.42-2.4,2.18-4.47,4.7-6.24,7.47,2.92-8.39,7.23-15.76,12.92-22.06,16.39-18.17,40.01-22.58,48.6-23.6,4.73,1.13,9.24,2.62,13.48,4.53,6.09,2.74,11.64,6.34,16.52,10.93Z"/>
        <path class="cls-1" d="m211.93,113.69v33.42c-6.38,1.04-12.93,1.57-19.61,1.57-9.54,0-18.83-1.1-27.74-3.19,0,0-.01,0-.02,0-1.3-.38-2.57-.79-3.82-1.23-16.61-5.84-29.88-16.91-37.99-32.11h0c-.14-.24-.26-.48-.39-.72-.39-.73-.76-1.49-1.12-2.24-2.47-5.19-4.37-10.82-5.6-16.86-.16-.75-.31-1.5-.44-2.26-.4-2.29-.72-4.64-.94-7.03-.12-1.26-.21-2.52-.27-3.81-.02-.22-.02-.43-.03-.65-.07-1.32-.09-2.66-.09-4.01v-.09c0-1.8.06-3.84.17-5.94.72,2.3,1.58,4.68,2.6,7.11.38.91.78,1.82,1.21,2.73,1.81,3.86,4.13,7.97,7.13,12.06,3.12,4.27,6.98,8.52,11.72,12.48,16.62,13.86,38.82,19.07,60,14.62,4.97-1.04,9.32-1.98,10.32-2.26,1.76-.49,3.4-1.03,4.9-1.6Z"/>
        <path class="cls-1" d="m255.07,44.45c-.01-.44-.54-.66-.68-.3-4.72,11.8-21.41,13.29-30.95,17.28-10.04,4.21-19.7,11.41-23.9,21.65-.51.47-1.11,1.24-.95.22,3.67-10.75,12.98-19.11,22.71-22.81,2.15-.85,6.69-2.34,9.46-3.15,6.49-1.89,11.68-4,11.68-4,0,0-5.57,1.41-15.1,3.85-7.72,1.98-15.34,5.11-21.21,10.84-4.4,4.3-7.61,10.28-8.94,16.61-.04.14-.06.29-.09.43-.26,1.47-.47,3.98-.47,5.63,0,.72.17,1.19.22,1.38.12.43.25.59.38.61.3.03.57-.84.57-.84,0,0,.04-.11.12-.32.17-.45.38-.89.64-1.3,6.43-10.32,15.5-12.38,27.69-10.48.23.04.37-.37.18-.55-1.72-1.64-4.25-2.43-6.22-3.04,8.37-2.19,16.05-3.25,22.23-7.11,7.73-4.83,12.9-14.78,12.66-24.38,0-.07,0-.15,0-.22Z"/>
        <path class="cls-1" d="m142.75,61.08c-2.62,16.61,2.76,33.59,14.76,45.37,1.05,1.03,2.08,1.95,3.06,2.71.09.07.17.13.26.19-12.23-4.71-22.04-11.85-29.36-21.36,0,0,0-.01-.01-.02-3.54-4.26-15.6-19.58-15.6-30.89l.27-1.58c1-5.94,2.9-11.7,5.71-17.03.54-1.02,1.1-2.04,1.68-3.08.09-.15.16-.3.26-.45.39-.68.8-1.36,1.21-2.02C136.64,14.21,156.69,2.52,181.17.36c2.74-.25,5.52-.36,8.36-.36,1.93,0,3.83.04,5.7.11-10.88,3.56-23.89,10.01-34.46,21.7-9.54,10.56-15.57,23.7-18.02,39.27Z"/>
        <path class="cls-1" d="m255.12,61.07v33.29c0,2.07-1.53,3.2-3.25,3.2h-3.04v37.19c-3.37,1.78-6.84,3.4-10.38,4.86-5.71,2.36-11.65,4.28-17.77,5.75-1.07.26-2.15.5-3.24.73h0v-48.56h-12.73c-.88,0-1.92-.68-2.45-1.65-.36-.65-.51-1.56-.27-2.3.87-2.77,5.61-11.34,23.77-11.34,4.4,0,8.18.36,9.98.58.36.04.55-.38.31-.66-.76-.9-1.69-1.88-2.92-2.91-2.07-1.73-3.08-1.93-3.36-2.18,7.99.02,20.19-4.81,25.33-16Z"/>
      </g>
    </g>
  </g>
</svg>